<svg xmlns="http://www.w3.org/2000/svg">
  <symbol id="time" viewBox="0 0 25 25" preserveAspectRatio="xMidYMid meet">
    <path d="M12.5 0C5.59476 0 0 5.59476 0 12.5C0 19.4052 5.59476 25 12.5 25C19.4052 25 25 19.4052 25 12.5C25 5.59476 19.4052 0 12.5 0ZM17.1618 15.7762L16.1537 17.0363C16.0876 17.119 16.0058 17.1879 15.913 17.239C15.8202 17.2901 15.7183 17.3224 15.613 17.3341C15.5078 17.3458 15.4012 17.3366 15.2995 17.3072C15.1978 17.2777 15.1029 17.2285 15.0202 17.1623L11.6431 14.6562C11.4072 14.4673 11.2167 14.2278 11.0859 13.9553C10.955 13.6828 10.8871 13.3844 10.8871 13.0822V5.24194C10.8871 5.02805 10.9721 4.82293 11.1233 4.67169C11.2745 4.52045 11.4797 4.43548 11.6935 4.43548H13.3065C13.5203 4.43548 13.7255 4.52045 13.8767 4.67169C14.0279 4.82293 14.1129 5.02805 14.1129 5.24194V12.5L17.0363 14.6421C17.119 14.7083 17.1879 14.7902 17.239 14.883C17.2901 14.9759 17.3224 15.0778 17.3341 15.1832C17.3457 15.2885 17.3365 15.3951 17.3069 15.4968C17.2774 15.5986 17.2281 15.6935 17.1618 15.7762Z" />
  </symbol>
  <symbol id="calories" viewBox="0 0 22 25" preserveAspectRatio="xMidYMid meet">
    <path d="M15.7988 2.5C14.7832 3.44238 13.8662 4.43311 13.0537 5.42822C11.7227 3.59473 10.0723 1.73486 8.20312 0C3.40527 4.45166 0 10.252 0 13.75C0 19.9634 4.89697 25 10.9375 25C16.978 25 21.875 19.9634 21.875 13.75C21.875 11.1489 19.3369 5.78418 15.7988 2.5ZM14.8481 19.1333C13.7905 19.8735 12.4863 20.3125 11.0771 20.3125C7.5542 20.3125 4.6875 17.9814 4.6875 14.1968C4.6875 12.3115 5.87451 10.6504 8.2417 7.8125C8.58008 8.20215 13.0674 13.9326 13.0674 13.9326L15.9302 10.667C16.1323 11.0015 16.3164 11.3286 16.4805 11.6421C17.8159 14.1904 17.2524 17.4512 14.8481 19.1333Z" />
  </symbol>
  <symbol id="persons" viewBox="0 0 22 25" preserveAspectRatio="xMidYMid meet">
    <path d="M10.9375 12.5C14.3896 12.5 17.1875 9.70215 17.1875 6.25C17.1875 2.79785 14.3896 0 10.9375 0C7.48535 0 4.6875 2.79785 4.6875 6.25C4.6875 9.70215 7.48535 12.5 10.9375 12.5ZM15.3125 14.0625H14.4971C13.4131 14.5605 12.207 14.8438 10.9375 14.8438C9.66797 14.8438 8.4668 14.5605 7.37793 14.0625H6.5625C2.93945 14.0625 0 17.002 0 20.625V22.6562C0 23.9502 1.0498 25 2.34375 25H19.5312C20.8252 25 21.875 23.9502 21.875 22.6562V20.625C21.875 17.002 18.9355 14.0625 15.3125 14.0625Z" />
  </symbol>
  <symbol id="goback" viewBox="0 0 15 25" preserveAspectRatio="xMidYMid meet">
    <path d="M0.4 11.6764L11.8927 0.436052C12.3512 -0.0193742 13.0927 -0.0193742 13.5512 0.436052L14.2439 1.12404C14.7024 1.57946 14.7024 2.3159 14.2439 2.77132L4.26341 12.5L14.2341 22.2287C14.6927 22.6841 14.6927 23.4205 14.2341 23.876L13.5415 24.564C13.0829 25.0194 12.3415 25.0194 11.8829 24.564L0.390243 13.3236C-0.0585371 12.8682 -0.058537 12.1318 0.4 11.6764Z" />
  </symbol>
</svg>
